# xmcd
#
# Track frame offsets:
#	150
#	13385
#	42350
#
# Disc length: 777 seconds
#
# Revision: 0
# Processed by: cddbd v1.5.1PL0 Copyright (c) Steve Scherf et al.
# Submitted via: dBpowerAMP V4.0
#
DISCID=21030703
DTITLE=Joss Stone  - Fell in love with a boy
DYEAR=2004
DGENRE=
TTITLE0=Fell in love with a boy (Radio version)
TTITLE1=Victim of a foolish heart (Live at Ronnie Scotts)
TTITLE2=Fell in love with a boy (Accoustic version)
EXTD=
EXTT0=
EXTT1=
EXTT2=
PLAYORDER=
